<?xml version="1.0" encoding="utf-8"?>
<!-- Uploaded to: SVG Repo, www.svgrepo.com, Generator: SVG Repo Mixer Tools -->
<svg width="800px" height="800px" viewBox="0 -94.27 478.321 478.321" xmlns="http://www.w3.org/2000/svg"><defs><style>.a{fill:#ffffff;}.b{fill:#b3b3b3;}.c{fill:#aaa0c7;}.d{fill:#211715;}.e{fill:#957f6e;}.f{fill:#85807f;}</style></defs><path class="a" d="M74.735,201.07c-.654-2.859-.048-5.843.668-8.687.7-2.779,1.592-5.673,3.68-7.636a13.193,13.193,0,0,1,6.394-3.228,113.849,113.849,0,0,1,15.193-1.34,18.035,18.035,0,0,1,13.112,7.523,9.128,9.128,0,0,1,1.933,5.661s-2.168,2.476-6.779,7.7a76.2,76.2,0,0,0-6.709,8.958c-.458,1.125-1.96,1.542-3.4,1.034-1.22-.43-2.557-2.027-3.8-2.367-2.292-.625-5.833-.042-8.22-.532-3.166-.65-6.8-1.449-8.179-4.373Z"/><path class="a" d="M77.839,98c-.562-.779-1.131-1.607-1.725-2.489a11.519,11.519,0,0,1-1.831-3.993s.88-8.429,1.423-7.994q.537.43,1.111.856a15.07,15.07,0,0,0,2.341,1.4c.833.354,3.145,1.225,4,1.508a43.626,43.626,0,0,0,9.132,2.5,32.878,32.878,0,0,0,3.286.249,23.8,23.8,0,0,0,13.183-3.254c.364-.216,1.521,4.68,1.521,4.68-.25,2.01-1.021,5.452-1.5,8.752-.459,1.681-.756,3.223-1.167,4.694-1.491-.765-2.314-1.244-3.552-1.936l-.412-.288a11.309,11.309,0,0,1-6.675,2.418,14.475,14.475,0,0,1-6.916-1,25.9,25.9,0,0,1-3.267,2.25,23.132,23.132,0,0,1-4.82-3.49A33.273,33.273,0,0,1,77.839,98Z"/><path class="a" d="M121.289,50.567c-.325,4.7-.446,9.384-.651,13.7-.356,7.489-2.207,14.357-7.155,18.946a23.978,23.978,0,0,1-17.9,6.821,32.878,32.878,0,0,1-3.286-.249,43.626,43.626,0,0,1-9.132-2.5c-.859-.283-3.171-1.154-4-1.508a15.07,15.07,0,0,1-2.341-1.4,39.423,39.423,0,0,1-7.978-7.972s-1.472-1.991-2.114-3.14c0,0-.118-.261-.286-.629a9.1,9.1,0,0,1-4.584-.749,12.391,12.391,0,0,1-5.014-5.21c-1.293-2.245-2.049-6.108-1.16-8.444a4.273,4.273,0,0,1,3.39-2.662,4.731,4.731,0,0,1,3.457.54S58.877,28.947,94.894,28.186C126.45,27.519,121.289,50.567,121.289,50.567Z"/><path class="a" d="M221.981,93.857c-.373-1.066-.748-2.148-1.125-3.235-3,3.263-6.127,5.344-10.493,5.916a24.021,24.021,0,0,1-7.96-.1,39.561,39.561,0,0,1-9.267-3.563,59.593,59.593,0,0,1,1.888,17.411c-.307,7.9-1.013,15.794-.922,23.7.042,3.7,1.125,22.03,1.292,25.863l.077,1.778c11.471-2.186,22.8-4.348,33.782-6.444.467-12.655,1.636-32.505-1.767-45.075-1.028-3.8-2.375-7.512-3.721-11.224C223.188,97.3,222.589,95.6,221.981,93.857Z"/><path class="b" d="M226.639,13.174C219.727,4.852,211.227,2.1,201.372,2.028c-6.61-.05-16.371,1.625-25.139,11.383-4.014,4.7-5.654,7.874-6.877,13.4a41.69,41.69,0,0,0-.869,10.415c.162,1.733.611,4.5.921,7.3.752,5.444.45,12.887-.66,16.094-1.5,4.337-2.465,14.6,7.3,17.016,0,0,16.391,3.4,25.806.673a28.255,28.255,0,0,0,3.444.782,30.922,30.922,0,0,0,3.079.306,22.513,22.513,0,0,0,16.958-6.01c4.747-4.2,6.636-10.606,7.135-17.628.3-4.2.519-8.769.962-13.331a51.234,51.234,0,0,0-.4-15.637,29.306,29.306,0,0,0-6.395-13.61"/><path class="a" d="M185.061,44.352a66.108,66.108,0,0,0,10.232-6.392c7.909.444,9.161,1.293,16.532-1.551a32.382,32.382,0,0,0,12.548-8.8l.956-1.083c1.8,1.259,3.248,3.656,5.074,7.4a27.927,27.927,0,0,1,2.177,11.591l-.382,12.96c-.77,5.939-2.737,11.254-6.862,14.9a23.526,23.526,0,0,1-8.773,5.077c.47,1.3.748,2.062.748,2.062,1.129,3.114,2.341,6.628,3.545,10.1-3,3.262-6.127,5.343-10.493,5.915a24.021,24.021,0,0,1-7.96-.1,39.4,39.4,0,0,1-9.264-3.565,71.938,71.938,0,0,0-4-11.316c.517-4.023.588-5.459.968-8.519a37.529,37.529,0,0,1-6.533-7.034s-3.18-4.517-1.847-3.629a8.466,8.466,0,0,1-4.61-.766,11.639,11.639,0,0,1-4.592-5c-1.164-2.136-1.789-5.78-.9-7.953a4.011,4.011,0,0,1,3.241-2.424,4.447,4.447,0,0,1,3.234.582Z"/><path class="c" d="M243.005,152.563l11.469-2.19c-1.35-7.111-3.46-17.041-4.93-25.931-1.63-9.83-4.13-22.47-9.87-29.78-3.26-4.15-6.791-6.275-11.5-8.4-1.463-.66-5.974-2.354-5.974-2.354l-4.246-1.595c1.893,5.313,3.964,11.478,5.811,16.574,1.346,3.712,2.693,7.429,3.721,11.224,3.4,12.571,2.234,32.42,1.767,45.079Z"/><path class="c" d="M167.809,166.913l-9.575,1.828c-.58-9.19-.86-22.149-.98-30.149-.13-8.6,1.37-23.75,3.51-30.06,3.62-10.65,9.22-15.14,19.64-22.16,2.958-2.148,5.87-3.373,8.441-5.458a63.36,63.36,0,0,1,6.179,29.376c-.307,7.9-1.013,15.794-.922,23.7.042,3.7,1.125,22.03,1.292,25.863l.077,1.778C186.31,163.381,177.052,165.149,167.809,166.913Z"/><path class="d" d="M188.061,73.436c-.3,2.469-.526,4.947-.834,7.416a2,2,0,0,0,.586,1.415,2,2,0,0,0,2.829,0,2.338,2.338,0,0,0,.585-1.415c.308-2.469.533-4.947.834-7.416a1.992,1.992,0,0,0-.586-1.414,2,2,0,0,0-2.828,0,2.326,2.326,0,0,0-.586,1.414Z"/><path class="d" d="M256.4,149.841c-1.18-6.194-2.466-12.367-3.625-18.564-1.11-5.943-1.962-11.936-3.313-17.831A62.237,62.237,0,0,0,243.842,97.4a27.974,27.974,0,0,0-11.5-11.328,82.841,82.841,0,0,0-11.251-4.593c-2.428-.867-3.474,3-1.063,3.858q1.893.675,3.778,1.37c.829.306,1.658.614,2.482.934.317.123.636.245.95.377-.5-.21.066.035.11.055.422.2.845.388,1.264.59a25.139,25.139,0,0,1,11.339,9.985c5.615,9.623,6.705,21.363,8.677,32.114,1.234,6.728,2.637,13.423,3.917,20.142.48,2.526,4.336,1.456,3.857-1.063Z"/><path class="d" d="M234.244,112.462c.509,6.828,1.656,13.636,1.184,20.5a65.018,65.018,0,0,1-1.736,10.953,35.331,35.331,0,0,0-1.074,5.259,31.585,31.585,0,0,0,.116,4.968c.174,2.555,4.175,2.574,4,0a33.021,33.021,0,0,1-.131-4.779,36.375,36.375,0,0,1,1.159-5.28,71.618,71.618,0,0,0,1.666-11.121c.472-6.864-.675-13.672-1.184-20.5-.19-2.551-4.191-2.572-4,0Z"/><path class="d" d="M167.575,45.92a52.355,52.355,0,0,1,0,10.322c-.213,2.07-.938,3.96-1.306,5.988-.759,4.189-.5,9.076,2.049,12.655a11.784,11.784,0,0,0,7.2,4.673l-.883-.515c1.37,1.5,3.634,2.15,5.571,2.449a15.034,15.034,0,0,0,8.012-.753,2.064,2.064,0,0,0,1.4-2.46,2.013,2.013,0,0,0-2.46-1.4c-2.749,1.128-7.045,1.366-9.46-.425a6.134,6.134,0,0,0-.636-.555,6.2,6.2,0,0,0-1.418-.436,7.955,7.955,0,0,1-1.814-.78,7.02,7.02,0,0,1-2.463-2.449,11.947,11.947,0,0,1-1.458-6.593,13.542,13.542,0,0,1,.364-3.04c.239-1.065.633-2.082.849-3.155a46.767,46.767,0,0,0,.457-13.529,2.054,2.054,0,0,0-2-2,2.014,2.014,0,0,0-2,2Z"/><path class="d" d="M192.3,72.254a36.682,36.682,0,0,1-5.9-5.818q-.135-.167-.269-.336c-.027-.034-.378-.485-.111-.138q-.288-.375-.569-.756c-.16-.215-.312-.435-.464-.656A28.058,28.058,0,0,1,183.385,62a2.018,2.018,0,0,0-2.736-.718,2.045,2.045,0,0,0-.718,2.737,34.117,34.117,0,0,0,3.536,5.107,36.723,36.723,0,0,0,6.007,5.952,2.052,2.052,0,0,0,2.828,0,2.021,2.021,0,0,0,0-2.828Z"/><path class="d" d="M225.225,14.589c3.818,4.349,5.79,10.229,6.364,15.923.656,6.5-.317,12.944-.738,19.429-.371,5.7-.434,11.676-3.051,16.9a19.706,19.706,0,0,1-11.924,9.734c-6.234,1.848-12.695.449-18.564-1.964a2.014,2.014,0,0,0-2.46,1.4,2.052,2.052,0,0,0,1.4,2.461c5.98,2.457,12.465,3.731,18.884,2.416a24.315,24.315,0,0,0,14.617-9.5c3.689-5.227,4.471-11.7,4.875-17.911.239-3.683.416-7.378.808-11.049a59.181,59.181,0,0,0,.294-10.249c-.49-7.386-2.721-14.769-7.673-20.412-1.7-1.938-4.522.9-2.829,2.829Z"/><path class="d" d="M228.054,11.76A31.705,31.705,0,0,0,211.127,1.132,40.566,40.566,0,0,0,193.532.817a34.881,34.881,0,0,0-17.439,9.824A31.852,31.852,0,0,0,167,28.679,37.633,37.633,0,0,0,166.72,39.2c.492,3.74,1.17,7.536.967,11.322-.138,2.572,3.863,2.565,4,0,.32-5.972-1.607-11.785-1.157-17.759.459-6.1,2.139-11.777,6.008-16.6A32.008,32.008,0,0,1,192.325,5.246a34.979,34.979,0,0,1,15.3-.746,28.509,28.509,0,0,1,17.6,10.089c1.658,1.973,4.475-.869,2.829-2.829Z"/><path class="d" d="M179.105,45.089a6.815,6.815,0,0,0-7.86.717,7.166,7.166,0,0,0-2.033,5.789c.188,4.6,2.8,9.717,7.055,11.826a9.154,9.154,0,0,0,7.988.2,2,2,0,0,0-2.019-3.454,3.544,3.544,0,0,1-1.107.269c-.3,0-.592.009-.889-.011-.146-.01-.291-.024-.436-.041.176.019.144.011-.1-.027-.489-.113-.96-.239-1.436-.4-.387-.127.271.191-.041-.021-.248-.169-.528-.3-.78-.465a9.2,9.2,0,0,1-2.166-2.162c-.25-.363-.482-.738-.7-1.12-.112-.2-.223-.392-.329-.591a4.479,4.479,0,0,0-.238-.464,10.959,10.959,0,0,1-.772-3.077,8.97,8.97,0,0,1,.007-1.817c-.035.286.095-.423.115-.5.035-.128.074-.253.118-.377-.109.24-.127.278-.052.114.077-.137.148-.278.226-.415s.327-.338.02-.043c.059-.057.543-.508.2-.24a3.381,3.381,0,0,1,.659-.394c-.152.06-.107.045.136-.043.155-.051.312-.094.471-.131.286-.051.342-.066.166-.046.154-.014.308-.021.463-.021a2.2,2.2,0,0,1,1.319.393c2.2,1.346,4.215-2.112,2.019-3.454Z"/><path class="d" d="M222.959,26.2a30.665,30.665,0,0,1-11.666,8.283,24.425,24.425,0,0,1-6.984,1.907,50.583,50.583,0,0,1-7.193-.312c-2.568-.184-2.557,3.817,0,4a47.021,47.021,0,0,0,7.472.29,28.96,28.96,0,0,0,8.185-2.192,34.709,34.709,0,0,0,13.014-9.147c1.7-1.918-1.114-4.757-2.828-2.829Z"/><path class="d" d="M199.526,30.809a34.146,34.146,0,0,1-6.9,6.681,78.069,78.069,0,0,1-8.571,5.135,2,2,0,0,0,2.019,3.454c6.1-3.286,11.962-6.9,16.285-12.441a2.067,2.067,0,0,0,0-2.829,2.014,2.014,0,0,0-2.829,0Z"/><path class="d" d="M224.3,28.24c.066.047.24.189.082.058.108.09.213.184.315.28a9.107,9.107,0,0,1,.692.725,12.6,12.6,0,0,1,1.106,1.568,36.039,36.039,0,0,1,2.337,4.393,25.29,25.29,0,0,1,1.749,10.253c-.057,2.575,3.943,2.575,4,0A29.011,29.011,0,0,0,232.4,33.508c-1.381-3.187-3.195-6.657-6.08-8.722a2.017,2.017,0,0,0-2.737.718,2.043,2.043,0,0,0,.718,2.736Z"/><path class="d" d="M186.834,81.306a66.869,66.869,0,0,1,5.719,18.814c.944,6.822.309,13.7-.061,20.537-.288,5.313-.528,10.636-.3,15.956.167,3.967.388,7.932.6,11.9.205,3.781.437,7.561.6,11.343.113,2.564,4.114,2.578,4,0-.329-7.466-.836-14.924-1.17-22.39-.228-5.112-.074-10.216.189-15.324.357-6.92,1.064-13.881.291-20.795a71.324,71.324,0,0,0-6.416-22.056,2.017,2.017,0,0,0-2.737-.717,2.045,2.045,0,0,0-.717,2.736Z"/><path class="d" d="M193.607,95.335c4.7,2.227,9.433,3.784,14.7,3.412A19.626,19.626,0,0,0,220.8,93.532c1.9-1.747-.936-4.569-2.829-2.829a15.429,15.429,0,0,1-10.09,4.072c-4.388.249-8.32-1.033-12.25-2.893-2.314-1.1-4.347,2.351-2.019,3.453Z"/><path class="d" d="M215.382,81.051c1.757,4.855,3.407,9.747,5.118,14.618,1.764,5.019,3.733,9.986,5.1,15.134,2.311,8.709,2.322,18.026,2.209,26.975-.064,5.064-.27,10.125-.47,15.186-.1,2.574,3.9,2.569,4,0,.369-9.333.772-18.691.242-28.026a83.291,83.291,0,0,0-1.685-13.4,127.685,127.685,0,0,0-4.828-14.925c-1.971-5.532-3.831-11.1-5.829-16.627-.869-2.4-4.735-1.365-3.857,1.064Z"/><path class="d" d="M187.369,79.549a49.823,49.823,0,0,1-5.2,3.282c-1.758,1.059-3.435,2.246-5.124,3.411a84.354,84.354,0,0,0-7.837,5.952A35.615,35.615,0,0,0,159.2,106.956c-2.084,5.688-2.7,11.979-3.276,17.969a162.738,162.738,0,0,0-.582,18.956c.163,8.289.372,16.586.888,24.861.16,2.557,4.161,2.575,4,0-.453-7.26-.661-14.535-.824-21.807-.14-6.242-.244-12.446.23-18.678a93.2,93.2,0,0,1,2.642-17.85,31.047,31.047,0,0,1,8.362-14.1,64.692,64.692,0,0,1,8.1-6.385c1.855-1.284,3.7-2.59,5.64-3.749a54.411,54.411,0,0,0,5.81-3.79,2.012,2.012,0,0,0,0-2.829,2.051,2.051,0,0,0-2.828,0Z"/><path class="d" d="M199.989,62.255a4.15,4.15,0,0,0-.6.762,4.1,4.1,0,0,0-.282.522,8.469,8.469,0,0,0-.416,1.044,5.893,5.893,0,0,0-.19,1.1,2.056,2.056,0,0,0,2,2l.532-.072a1.99,1.99,0,0,0,.882-.514l.313-.405a1.987,1.987,0,0,0,.273-1.009c0-.028.006-.055.01-.082l-.072.532a3.808,3.808,0,0,1,.268-.928l-.2.478a3.793,3.793,0,0,1,.467-.834l-.313.4a1.575,1.575,0,0,1,.154-.172,2.056,2.056,0,0,0,0-2.829,2.009,2.009,0,0,0-1.414-.585l-.531.071a2,2,0,0,0-.883.514Z"/><path class="d" d="M214.636,64.3c-.116.066-.236.123-.354.184-.237.123.139-.061.19-.076-.085.026-.169.066-.253.1a8.053,8.053,0,0,1-.873.252q-.26.06-.522.1c-.079.014-.16.021-.237.038.076-.017.451-.052.172-.026-.342.031-.682.056-1.026.058a8.729,8.729,0,0,1-.943-.044c-.452-.046.41.073-.028-.007-.159-.028-.318-.063-.475-.1-.14-.038-.279-.081-.415-.13-.08-.029-.16-.072-.241-.094.109.029.345.154.106.04-.5-.236-1-.452-1.509-.664a2,2,0,0,0-1.542.2,2,2,0,0,0-.717,2.736,2.369,2.369,0,0,0,1.195.919c-.215-.09-.263-.112-.022,0l.258.118c.188.087.377.174.567.256a8.509,8.509,0,0,0,1.36.5,9.985,9.985,0,0,0,2.526.271,10.236,10.236,0,0,0,4.8-1.175,2,2,0,0,0-2.019-3.454Z"/><path class="d" d="M198.457,48.475c-.34,1.44.157,4.668,2.849,4.767,3.532-.255,3.461-4.193,2.149-5.959C202.381,45.836,199.476,45.4,198.457,48.475Z"/><path class="d" d="M219.678,46.44c-.311,1.425.156,4.622,2.64,4.726,3.258-.244,3.182-4.142,1.968-5.894C223.292,43.837,220.611,43.4,219.678,46.44Z"/><path class="d" d="M211.963,55.521q.39.6.758,1.218a13.5,13.5,0,0,1,.753,1.357l-.2-.478a1.492,1.492,0,0,1,.1.334l-.072-.532a.856.856,0,0,1,0,.16l.071-.531a.441.441,0,0,1-.024.1l.2-.478a.41.41,0,0,1-.048.093l.313-.405a1.719,1.719,0,0,1-.284.275l.405-.312a1.575,1.575,0,0,1-.281.164l.478-.2a1.728,1.728,0,0,1-.419.105l.532-.071c-.262.033-.526.059-.786.107a2.017,2.017,0,0,0-1.195.919,2,2,0,0,0,.717,2.737l.478.2a2,2,0,0,0,1.063,0l.105-.017-.531.072a5.093,5.093,0,0,0,1.055-.178,3.511,3.511,0,0,0,1.406-.874,2.514,2.514,0,0,0,.655-1.1,2.7,2.7,0,0,0,.017-1.3,4.063,4.063,0,0,0-.461-1.127c-.41-.774-.873-1.524-1.35-2.259a2.108,2.108,0,0,0-1.195-.919,2.042,2.042,0,0,0-1.541.2,2,2,0,0,0-.718,2.737Z"/><path class="d" d="M176.793,128.463c-.009,5.16.082,10.323.218,15.481a164.613,164.613,0,0,0,1.038,17.607,2.012,2.012,0,0,0,2.46,1.4,2.055,2.055,0,0,0,1.4-2.461c.062.462-.037-.334-.046-.411q-.047-.42-.088-.84-.091-.94-.162-1.884c-.105-1.372-.186-2.746-.256-4.12-.164-3.2-.269-6.405-.352-9.61-.129-5.051-.218-10.106-.209-15.159,0-2.574-4-2.578-4,0Z"/><path class="e" d="M105.383,103.711c-.42-.233-.838-.47-1.319-.739-.137-.1-.275-.192-.417-.285a11.305,11.305,0,0,1-6.67,2.415,14.475,14.475,0,0,1-6.916-1,25.9,25.9,0,0,1-3.267,2.25,23.132,23.132,0,0,1-4.82-3.49,42.154,42.154,0,0,1-5.86-7.35,11.987,11.987,0,0,1-1.506-2.9l-1.714.572s-5.13,1.712-6.415,2.248c-12.659,5.284-20.96,7.606-28,19.851-4.173,7.26-7.646,22.317-9.863,30.621s-2.783,17.346-.534,25.547a34.58,34.58,0,0,0,7.168,13.563c8.808,10.076,30.515,16.754,39.35,15.317a20.115,20.115,0,0,1,.8-7.95c.7-2.779,1.592-5.673,3.68-7.636a13.193,13.193,0,0,1,6.394-3.228c2.658-.48,8.948-1.116,12.682-1.306,14.2-2.712,29.212-5.579,44.541-8.5.126-15.264-.034-33.609-2.306-48.192-2.517-16.155-9.222-21.167-23.77-27.741-.64-.289-6.23-2.676-6.23-2.676s-.124-.053-.337-.149c-.343,2-.9,4.675-1.274,7.261-.459,1.681-.756,3.223-1.167,4.694C106.705,104.44,106.042,104.079,105.383,103.711Z"/><path class="a" d="M239.635,199.522a4.5,4.5,0,0,1,.4-2.753,4.635,4.635,0,0,1,3.443-2.49,109.781,109.781,0,0,1,12.752-1.653c8.005-.716,12.037-1.068,21.956-2.079l1.252-.128-.624-1.622c-.417-1.083-2.8-3.282-5.626-5.666a36.147,36.147,0,0,1-4.358-4.307,3.448,3.448,0,0,1,.317-4.083c1.27-1.6,3.469-1.421,5.083-.777,7.112,2.833,16.667,8.222,22.7,10.618,3.379,1.342,6.608,5.934,6.391,10.311l5.169,7.076a54.487,54.487,0,0,0-16.417,18.818l-6.509-2.768c-2.834-1.167-11.334-1.085-13.611-1.138-4.288-.1-8.778-.212-13.445-.266l-.482-1.925c-3.181.03-6.176.024-7.031-.061a3.082,3.082,0,0,1-2.845-2.466,3.28,3.28,0,0,1,2.161-3.236l.372-.128-2.8.271c-3.9.378-6.363-1.265-6.187-3.809a3.647,3.647,0,0,1,2.645-3.025l-1.1-.122C240.894,201.855,239.9,200.76,239.635,199.522Z"/><path class="a" d="M393.79,102.315l.1-.12a15.7,15.7,0,0,0,3.56-8.984c.374-3.33-.944-8.14-3.541-10.207-.869-.691-2.738-1.757-6.134-.87a7.485,7.485,0,0,0-4.586,3.229c-1.352-2.512-3.272-7.136-6.881-11.594-4.431-3.707-11.056-6.371-18.376-6.945-.364,1.8-.666,3.636-1.019,5.578a34.553,34.553,0,0,1-1.43,6.164,13.036,13.036,0,0,1-2.06,3.372c-1.488,1.891-3.141,3.644-3.507,6.064-.227,1.5.811,3.908.957,5.422.111,1.156.158,1.531.269,2.688l.87,4.944c1.031-.034,3.343-.013,4.958-.013a.99.99,0,0,1,.922,1.086c-.1,2.332-.928,3.256-1.717,4.917a12.322,12.322,0,0,1-2.115,2.831l-.434.364c.234,1.328.77,4.38.77,4.38a11.793,11.793,0,0,0,2.529,3.649,12.535,12.535,0,0,0,5.169,3.581,34.286,34.286,0,0,0,17.529,2.28,44.014,44.014,0,0,1,4.227,8.515l1.232,3.374a41.3,41.3,0,0,1,11.08-5.684,72.584,72.584,0,0,1,18.935-3.725l-1.039-3.259c-11-1.166-19.91-11.872-23.667-17.217l-.7-1A10.806,10.806,0,0,0,393.79,102.315Z"/><path class="d" d="M351.958,103.059c1.237-.043,2.477-.023,3.714-.019l.93,0h.25q.339.007-.193-.042a1.108,1.108,0,0,1-.508-.3q-.277-.406-.111-.139a.947.947,0,0,1-.146-.556,2.336,2.336,0,0,1-.008.29,2.433,2.433,0,0,0-.04.466c.042-.289.045-.323.011-.1-.015.089-.031.179-.05.267q-.051.252-.122.5c-.045.154-.094.306-.149.457-.027.073-.055.145-.083.217q.194-.452.067-.163c-.114.238-.227.476-.349.709-.272.521-.533,1.047-.807,1.566a8.343,8.343,0,0,1-.47.765q-.138.2-.283.4c-.081.111-.356.39.019-.016a13.376,13.376,0,0,1-.981,1.107,2.011,2.011,0,0,0,0,2.828,2.05,2.05,0,0,0,2.829,0,11.832,11.832,0,0,0,2.033-2.547A22.191,22.191,0,0,0,358.95,106a9.829,9.829,0,0,0,.686-1.888,6.4,6.4,0,0,0,.172-2.766,3.024,3.024,0,0,0-2.034-2.189,7.422,7.422,0,0,0-2.1-.121c-1.237,0-2.477-.024-3.714.019a2,2,0,0,0,0,4Z"/><path class="f" d="M383.558,38.489c-12.68,3.826-18.9,10.62-23.635,21.267a41.287,41.287,0,0,0-1.993,7.077c7.323.564,13.949,3.228,18.381,6.936,3.609,4.459,5.529,9.083,6.882,11.594a7.48,7.48,0,0,1,4.585-3.229c3.4-.887,5.265.179,6.134.87,2.6,2.067,3.915,6.877,3.541,10.207a15.7,15.7,0,0,1-3.56,8.984,10.744,10.744,0,0,1-4.2,2.943l.7,1c4.254,6.051,15.111,18.974,28.13,17.146,2.448-3.645,6.233-7.2,8.7-9.651,6.191-6.13,13.889-17.111,14.793-31.07.568-8.776-2.561-17.85-6.395-24.253-9.865-16.476-21.866-19.907-29.307-21.27A51.34,51.34,0,0,0,383.6,38.478Z"/><path class="d" d="M352.672,115.631a17.259,17.259,0,0,0,4.542,5.686,21.625,21.625,0,0,0,7.476,3.561,37.137,37.137,0,0,0,18.591.63c2.516-.537,1.452-4.394-1.063-3.857a32.8,32.8,0,0,1-16.119-.527,18.592,18.592,0,0,1-6.057-2.636,13.745,13.745,0,0,1-3.916-4.876c-1.153-2.3-4.6-.279-3.454,2.019Z"/><path class="d" d="M358,59.225a58.1,58.1,0,0,0-2.681,10.812c-.585,3.313-.842,6.987-2.814,9.818-1.635,2.347-3.837,4.353-4.447,7.269a9.686,9.686,0,0,0,.371,4.483,28.641,28.641,0,0,1,.721,4.5,2.056,2.056,0,0,0,2,2,2.014,2.014,0,0,0,2-2,32.556,32.556,0,0,0-.583-4.494c-.3-1.22-.862-2.506-.573-3.769.6-2.64,3.2-4.588,4.532-6.854,1.771-3.017,2.093-6.738,2.69-10.119a56.9,56.9,0,0,1,2.641-10.588,2.015,2.015,0,0,0-1.4-2.46,2.045,2.045,0,0,0-2.46,1.4Z"/><path class="d" d="M378.431,125.924a36.848,36.848,0,0,1,2.107,3.977c.159.341.315.682.467,1.026.07.156.138.312.207.469.036.085.073.17.109.254s.164.386.026.059.057.139.1.238q.091.224.181.447.154.39.3.784a2,2,0,1,0,3.857-1.063,44.464,44.464,0,0,0-3.9-8.21,2,2,0,1,0-3.454,2.019Z"/><path class="d" d="M388.667,107.145c6.023,8.534,14.544,16.959,25.394,18.207a2.011,2.011,0,0,0,2-2,2.047,2.047,0,0,0-2-2c-9.253-1.064-16.871-9.044-21.94-16.226a2.054,2.054,0,0,0-2.736-.718,2.018,2.018,0,0,0-.718,2.737Z"/><path class="d" d="M385.209,85.91c1.458-1.892,5.06-2.759,6.98-1.659.054.031.6.389.387.23-.169-.124.468.427.561.526a6.762,6.762,0,0,1,1.028,1.494,11.847,11.847,0,0,1,1.275,4.123c.689,5.656-2.452,12.15-8.418,13.153a2.016,2.016,0,0,0-1.4,2.461,2.047,2.047,0,0,0,2.461,1.4c6.959-1.17,10.595-7.682,11.338-14.168.577-5.042-1.729-12.337-7.369-13.474a10.562,10.562,0,0,0-10.3,3.9,2.013,2.013,0,0,0,.718,2.737,2.051,2.051,0,0,0,2.736-.718Z"/><path class="d" d="M356.53,80.231c-.681,1.733-.864,5.869,1.98,6.532,3.818.389,4.611-4.549,3.605-7.021C361.291,77.718,358.294,76.587,356.53,80.231Z"/><path class="d" d="M361.65,60.766a39.216,39.216,0,0,1,8.312-12.586,33.957,33.957,0,0,1,13.411-7.541c10-3.169,21.347-3.238,31.126.785,10.1,4.155,17.831,13.286,22.1,23.149a39.377,39.377,0,0,1,3.277,19.716,44.155,44.155,0,0,1-6.076,17.657c-2.94,4.97-6.725,8.953-10.763,13.019-4.631,4.662-9.684,10.118-8.887,17.186a2.06,2.06,0,0,0,2,2,2.013,2.013,0,0,0,2-2,11.324,11.324,0,0,1,2.383-8.272,51.335,51.335,0,0,1,6.077-6.829,66.776,66.776,0,0,0,10.083-12.158,48.807,48.807,0,0,0,6.833-17.954,42.2,42.2,0,0,0-2.183-21.189c-4.125-11.271-12.368-21.908-23.371-27.131-9.851-4.677-21.281-5.268-31.831-2.876a41.3,41.3,0,0,0-17.628,8.371c-4.627,3.918-7.859,9.15-10.312,14.634a2.061,2.061,0,0,0,.717,2.736,2.014,2.014,0,0,0,2.736-.717Z"/><path class="d" d="M374.9,75.183c.11.138.221.276.33.415.215.274-.137-.183.071.093q.279.369.55.746.525.731,1.016,1.485c.626.958,1.211,1.942,1.766,2.943.877,1.585,1.66,3.217,2.482,4.83a2.013,2.013,0,0,0,2.736.718,2.048,2.048,0,0,0,.717-2.737c-.848-1.665-1.655-3.35-2.567-4.983a45.356,45.356,0,0,0-4.273-6.338,2.005,2.005,0,0,0-2.828,0,2.057,2.057,0,0,0,0,2.828Z"/><path class="d" d="M359.7,69c5.425.782,11.051,2.746,15.2,6.18a2.055,2.055,0,0,0,2.828,0,2.015,2.015,0,0,0,0-2.828,34.174,34.174,0,0,0-16.962-7.209,2.067,2.067,0,0,0-2.46,1.4A2.014,2.014,0,0,0,359.7,69Z"/><path class="b" d="M403.173,128.351c-2.364.557-4.7,1.225-7.008,1.985-8.969,2.958-19.193,10.176-22.047,20.012q-1.45.621-2.895,1.272c-8.374,3.773-15.711,8.39-21.174,15.968-8.721,12.1-8.567,27.426-11.711,41.478-.749,3.35-1.078,7.414-3.644,11.233-7.439-6.6-12.115-12.031-19.232-19.409a3.443,3.443,0,0,0-4.063-.659c-9.829,5.1-18.581,17.617-20.045,22.325a.991.991,0,0,0,.094.823c6.008,9.794,15.287,22.764,20.446,28.307,9.395,10.094,22.445,18.278,36.167,16,.258-.043.516-.095.772-.155,2.083,6.9,4.48,11.081,10.978,14.321,3.927,1.959,9.972,4.445,15.972,4.889a147.28,147.28,0,0,0,21.444-.222c5.223-7.444,19.061-27.825,25.223-36.333,7-9.667,24.777-38.111,27.124-42.026.563-4.574,1.219-9.737,1.32-13.891.25-10.25.787-18.546-2.021-28s-9.923-21.616-21.1-24.751c-1.224-2.691-3.744-10.444-5.366-12.916a3.517,3.517,0,0,0-3.651-2.075A64.926,64.926,0,0,0,403.173,128.351Z"/><path class="d" d="M2.506,200.531q20.165-3.854,40.33-7.71c2.526-.482,1.456-4.338-1.064-3.857q-20.166,3.846-40.33,7.71c-2.525.483-1.456,4.339,1.064,3.857Z"/><path class="d" d="M255.092,268.731c13.14-3.3,26.135-7.272,39.182-10.919,2.162-.6,4.32-1.228,6.492-1.8,2.488-.65,1.433-4.509-1.064-3.857-12.994,3.394-25.877,7.254-38.818,10.846-2.281.633-4.559,1.291-6.855,1.868-2.5.627-1.438,4.486,1.063,3.857Z"/><path class="d" d="M345.259,151.035q-10.413-2.914-20.84-5.782-6.154-1.7-12.309-3.4l-5.651-1.558-2.577-.71a6.085,6.085,0,0,0-3.073-.081q-21.026,4.008-42.05,8.019-24.957,4.761-49.914,9.524-26.451,5.048-52.9,10.1-25.9,4.944-51.8,9.892L98.1,178.194c-2.525.482-1.456,4.338,1.064,3.857l41.1-7.85,43.094-8.227,42.282-8.07,39.49-7.534,33.933-6.47,3.819-.728h-1.063q21.19,5.84,42.371,11.72c2.483.695,3.542-3.163,1.063-3.857Z"/><path class="d" d="M116,214.7c5.826,2.955,11.693,5.83,17.552,8.72q5.044,2.49,10.086,4.988a14.888,14.888,0,0,0,2.46,1.188,5.6,5.6,0,0,0,2.591-.358l5.085-1.2q21.043-4.954,42.073-9.964,11.06-2.622,22.121-5.226a2.027,2.027,0,0,0,1.468-1.929A2.1,2.1,0,0,0,217.964,209q-16.821-6.988-33.658-13.942-8.943-3.716-17.873-7.463-3.831-1.613-7.657-3.24-1.75-.745-3.5-1.5c-1.078-.464-2.655-1.492-3.831-1.492a19.254,19.254,0,0,0-3.455.642l-3.6.705q-3.381.665-6.76,1.332-6.553,1.293-13.106,2.592c-2.523.5-1.455,4.355,1.063,3.857q13.193-2.609,26.386-5.2l-1.541-.2c17.591,7.639,35.354,14.887,53.076,22.218q6.694,2.77,13.388,5.546V209c-18.558,4.359-37.1,8.789-55.651,13.174q-7.576,1.791-15.156,3.57l1.541.2c-9.866-4.912-19.791-9.708-29.62-14.694-2.291-1.161-4.318,2.288-2.019,3.454Z"/><path class="d" d="M238.259,185.091c-11.995-4.9-24.289-9.051-36.415-13.6v3.857c16.885-3.359,33.748-6.831,50.624-10.235q6.143-1.239,12.291-2.456H263.7c9.723,3.173,19.486,6.227,29.243,9.294q15.97,5.019,31.955,9.993,4.853,1.511,9.709,3.007v-3.857c-6.967,1.783-13.963,3.453-20.97,5.072-2.507.579-1.446,4.436,1.064,3.857,7.007-1.619,14-3.289,20.97-5.072a2.017,2.017,0,0,0,0-3.857c-12.922-3.96-25.812-8.023-38.706-12.071q-12.012-3.771-24.01-7.586-2.364-.754-4.725-1.514c-1.343-.432-3.12-1.352-4.53-1.123-5.848.95-11.659,2.326-17.464,3.5-15.149,3.069-30.292,6.173-45.452,9.189-2.113.421-1.673,3.229,0,3.857,12.127,4.553,24.421,8.708,36.416,13.6a2.014,2.014,0,0,0,2.46-1.4,2.049,2.049,0,0,0-1.4-2.46Z"/><path class="d" d="M204.5,181.057c-5.363,2.108-10.757,4.139-16.105,6.285a2.019,2.019,0,0,0,0,3.857c13.551,4.031,27,8.392,40.494,12.622,2.462.772,3.515-3.088,1.064-3.857-13.491-4.23-26.943-8.591-40.495-12.622V191.2c5.349-2.146,10.742-4.177,16.106-6.285a2.06,2.06,0,0,0,1.4-2.46,2.014,2.014,0,0,0-2.46-1.4Z"/><path class="d" d="M427.239,143.45c8.681,2.514,14.561,10.575,17.974,18.534,4.322,10.08,3.975,20.835,3.7,31.568-.157,6.11-1.082,12.153-1.768,18.217a2.012,2.012,0,0,0,2,2,2.047,2.047,0,0,0,2-2c1.319-11.664,2.729-23.429,1.669-35.188-.912-10.1-4.449-20.006-11.027-27.825a28.1,28.1,0,0,0-13.483-9.163c-2.478-.717-3.535,3.141-1.064,3.857Z"/><path class="d" d="M429.5,140.512c-.554-1.238-1.224-3.122-1.8-4.644-.748-1.99-1.5-3.981-2.367-5.925a10.347,10.347,0,0,0-3.167-4.536c-2.157-1.486-5.64-.908-8.1-.738-10.435.722-21.587,3.483-30.146,9.735a32,32,0,0,0-10.53,12.217,2.06,2.06,0,0,0,.718,2.736,2.016,2.016,0,0,0,2.736-.717c3.519-7.692,11.063-13.222,18.875-16.037a69.67,69.67,0,0,1,15.312-3.648,39.858,39.858,0,0,1,8.127-.415c1.45.134,2.071,1.976,2.608,3.161,1.6,3.538,2.693,7.286,4.279,10.83a2.014,2.014,0,0,0,2.736.718,2.049,2.049,0,0,0,.718-2.737Z"/><path class="d" d="M415.91,138.84a100.884,100.884,0,0,0-26.475,3.912,123.582,123.582,0,0,0-24.254,9.6A47.872,47.872,0,0,0,347.72,167.44c-4.573,6.739-6.707,14.726-8.122,22.649-.8,4.466-1.4,8.962-2.194,13.428-.389,2.2-.884,4.367-1.309,6.555a31.2,31.2,0,0,1-1.928,7.1,2.061,2.061,0,0,0,.718,2.737,2.016,2.016,0,0,0,2.736-.718c1.727-3.778,2.348-7.945,3.15-12,.761-3.837,1.324-7.71,1.937-11.573,1.2-7.587,2.573-15.373,6.143-22.26a40.6,40.6,0,0,1,15.608-16.022,107.776,107.776,0,0,1,22.8-9.766,98.537,98.537,0,0,1,28.654-4.739c2.573-.025,2.579-4.025,0-4Z"/><path class="d" d="M337.584,220.179c-5.917-5.138-11.3-10.782-16.678-16.474-2.517-2.665-5.433-7.079-9.695-5.558-3.16,1.128-6.116,3.687-8.576,5.893a55.316,55.316,0,0,0-11.7,14.572,20.07,20.07,0,0,0-1.353,2.948c-.621,1.807.269,3.059,1.2,4.541q2.949,4.693,6.108,9.25c7.923,11.492,16.453,23.217,29.03,29.969,6.614,3.551,14.1,5.471,21.606,4.451,7.334-1,13.973-5.593,18.212-11.555,4.183-5.881,6.079-13.409,8.016-20.258a178.232,178.232,0,0,0,5.289-25.277q.406-3.1.666-6.216c.214-2.565-3.787-2.551-4,0a152.4,152.4,0,0,1-3.946,23.332c-1.694,6.966-3.537,14.152-6.36,20.761A25.916,25.916,0,0,1,352.892,264c-6.194,3.028-13.468,2.442-19.808.176-12.276-4.387-20.992-14.569-28.441-24.783q-3.087-4.233-6.014-8.58-1.392-2.064-2.746-4.155-.678-1.047-1.345-2.1l-.6-.949c-.109-.174-.633-1.014-.6-.8.041.232.094-.182.156-.348.124-.33-.062.121.092-.225.194-.435.406-.863.627-1.285.538-1.027,1.136-2.022,1.765-3a55.223,55.223,0,0,1,5.185-6.768,47.908,47.908,0,0,1,6.878-6.462,31.856,31.856,0,0,1,3.9-2.521c1.642-.892,2.465.476,3.548,1.61,4.909,5.14,9.692,10.406,14.888,15.263q2.148,2.008,4.372,3.931c1.935,1.681,4.776-1.137,2.828-2.828Z"/><path class="d" d="M280.538,187.787a12.221,12.221,0,0,0-3.065-3.551c-1.475-1.365-3.05-2.616-4.518-3.987-.893-.834-3.031-2.247-2.568-3.667.491-1.507,2.168-1.121,3.309-.69,7.267,2.747,13.947,6.9,21.087,9.95a10.171,10.171,0,0,1,4.572,3.2,9.3,9.3,0,0,1,1.963,5.851c-.071,2.575,3.929,2.573,4,0A13.424,13.424,0,0,0,298.8,183.27c-1.716-.963-3.671-1.6-5.453-2.447-2.132-1.01-4.243-2.065-6.356-3.113-2.191-1.087-4.382-2.173-6.6-3.211a46.256,46.256,0,0,0-6.226-2.67,6.2,6.2,0,0,0-6.2,1.234,5.542,5.542,0,0,0-.863,6.771,27.122,27.122,0,0,0,5.037,5.021c1.142.974,2.278,1.958,3.349,3.01a6.8,6.8,0,0,1,1.6,1.941,2.013,2.013,0,0,0,2.736.718,2.051,2.051,0,0,0,.718-2.737Z"/><path class="d" d="M278.183,188.547q-10.773,1.1-21.559,2.044c-3.835.343-7.683.7-11.483,1.339-3.209.539-6.234,1.531-7.295,4.977-1.111,3.609,1.249,6.649,4.86,7.136a2.07,2.07,0,0,0,2.46-1.4,2.013,2.013,0,0,0-1.4-2.46,4.3,4.3,0,0,1-1.713-.458,1.166,1.166,0,0,1-.365-.318c.021.025-.057-.158-.065-.179a2.317,2.317,0,0,1,.31-1.791,3.761,3.761,0,0,1,2.717-1.368c1.258-.254,2.529-.454,3.8-.624,6.145-.821,12.351-1.216,18.522-1.8q5.606-.526,11.206-1.1a2.057,2.057,0,0,0,2-2,2.013,2.013,0,0,0-2-2Z"/><path class="d" d="M266.364,198.25c-4.495.127-8.985.349-13.463.766-2.129.2-4.259.42-6.38.69a8.635,8.635,0,0,0-5.479,2.361c-2.6,2.855-1.15,7.027,2.211,8.408a11.771,11.771,0,0,0,5.7.494q2.822-.261,5.646-.48c4.1-.324,8.2-.63,12.3-.84,2.562-.131,2.577-4.131,0-4-6.248.32-12.49.822-18.72,1.392-1.227.113-2.849.268-3.922-.507a1.145,1.145,0,0,1-.308-1.734c.836-1.028,2.632-1.1,3.822-1.242,1.837-.214,3.676-.411,5.518-.578,4.35-.395,8.711-.607,13.077-.73,2.568-.072,2.579-4.072,0-4Z"/><path class="d" d="M249.776,207c-2.379.944-4.327,3.484-3.441,6.14a5.34,5.34,0,0,0,5.041,3.518c3.142.172,6.32.047,9.464,0,1.709-.026,3.419-.056,5.127-.116,2.567-.089,2.579-4.089,0-4-3.53.123-7.067.161-10.6.168-1.362,0-2.721-.032-4.082-.055-.076,0-.154-.009-.23-.016.6.057-.308-.091-.278-.079a1.059,1.059,0,0,1-.6-.545.429.429,0,0,1,.02-.442,1.863,1.863,0,0,1,.645-.714,2.06,2.06,0,0,0,1.4-2.46,2.013,2.013,0,0,0-2.46-1.4Z"/><path class="d" d="M258.505,218.615c5.2.062,10.408.225,15.613.295,1.955.026,3.911.072,5.862.205a17.158,17.158,0,0,1,5.049.833,2.015,2.015,0,0,0,2.46-1.4,2.045,2.045,0,0,0-1.4-2.46,19.447,19.447,0,0,0-5.483-.93c-2.073-.164-4.155-.218-6.234-.248-5.291-.076-10.579-.235-15.87-.3-2.575-.03-2.576,3.97,0,4Z"/><path class="a" d="M475.73,255.186c0-14.749.393-18.438.535-43.737a10,10,0,0,0-12.788-9.669c-16.456,4.783-40.278,11.736-56.639,16.456A12.92,12.92,0,0,0,397.5,230.6c-.107,24.858-.385,34.883-.385,57.251Z"/><path class="d" d="M399.116,287.852c0-12.842.141-25.682.258-38.523q.048-5.3.083-10.6.02-2.97.034-5.941a18.768,18.768,0,0,1,.426-5.134,10.961,10.961,0,0,1,5.169-6.538,18.819,18.819,0,0,1,4.118-1.484q2.374-.685,4.75-1.374,20.8-6.022,41.59-12.09c3.066-.893,6.186-2.075,9.324-2.671a8.025,8.025,0,0,1,7.214,2.393c2.358,2.462,2.185,5.5,2.163,8.685q-.036,5.315-.1,10.627c-.111,8.807-.363,17.612-.4,26.419q-.007,1.781-.008,3.562c0,2.574,4,2.578,4,0,0-9.063.244-18.122.375-27.183q.075-5.151.116-10.3c.032-3.75.527-7.738-1.029-11.258a12.1,12.1,0,0,0-6.754-6.3c-3.3-1.271-6.422-.6-9.688.35Q439.239,206.745,417.726,213q-4.962,1.439-9.925,2.873c-3.23.933-6.179,2.21-8.459,4.781a15.2,15.2,0,0,0-3.818,9.223c-.236,4.057-.06,8.176-.09,12.24-.1,13.257-.28,26.512-.311,39.769q-.006,2.982-.007,5.963c0,2.574,4,2.578,4,0Z"/><path class="b" d="M75.727,42.3c1.278-3.556,4.056-7.556,7.556-8.945,5.307-2.3,11.519-2.3,17.3-2.351a47.09,47.09,0,0,1,8.475,1.8c7.166,2.444,11.367,8.243,11.333,18.305l.669.855a56.994,56.994,0,0,0-.549-19.129c-1.416-6.241-3.774-11.743-8.764-16.074C104.742,8.945,96.963,6.686,86.184,6.686c-7.03,0-17.38,2.188-26.47,13.038-4.16,5.215-5.83,8.713-6.99,14.757a46.587,46.587,0,0,0-.67,11.361c.364,3.182,1.233,9.725,3.236,13.42.228-.6.391-1.025.391-1.025a4.273,4.273,0,0,1,3.39-2.662,4.731,4.731,0,0,1,3.457.54l6.422-.333a53.556,53.556,0,0,1,.861-7.638A9.352,9.352,0,0,1,71.686,44.6a7.853,7.853,0,0,1,3.764-2.25"/><path class="d" d="M58.119,146.939a146.6,146.6,0,0,0-3.113,16.006,13.785,13.785,0,0,0,.108,6.441,9.975,9.975,0,0,0,3.061,4.41c2.94,2.481,6.712,4.054,10.292,5.362a74.813,74.813,0,0,0,10.7,2.7c2.513.516,3.587-3.338,1.064-3.857-6.261-1.288-12.536-2.683-18.015-6.167a8.09,8.09,0,0,1-3.032-3.013c-.771-1.534-.545-3.356-.3-4.993.375-2.458.828-4.906,1.29-7.35.535-2.832,1.055-5.684,1.8-8.472.661-2.49-3.2-3.553-3.858-1.063Z"/><path class="d" d="M67.182,198.146a66.04,66.04,0,0,1-14.2-4.022A50.612,50.612,0,0,1,40.258,187c-9.016-7.21-12.248-18.979-11.49-30.138.361-5.309,1.776-10.382,3.1-15.508,1.248-4.828,2.514-9.655,4.029-14.407,2.666-8.362,6.5-16.4,13.97-21.5A67.256,67.256,0,0,1,62.544,99.2c3.6-1.471,7.192-2.85,10.882-4.083,2.429-.811,1.388-4.675-1.064-3.857-3.347,1.118-6.617,2.343-9.884,3.676a95.329,95.329,0,0,0-12.6,5.779,34.954,34.954,0,0,0-10.053,8.925,46.038,46.038,0,0,0-6.624,12.79c-1.767,4.967-3.154,10.065-4.489,15.163a128.991,128.991,0,0,0-3.565,15.577c-1.61,12.136.859,25.481,9.78,34.43a46.8,46.8,0,0,0,14.385,9.286A68.406,68.406,0,0,0,66.119,202a2.062,2.062,0,0,0,2.46-1.4,2.016,2.016,0,0,0-1.4-2.46Z"/><path class="d" d="M144.707,170.859c.115-15.88.078-31.943-2.354-47.674-.853-5.519-2.372-11.155-5.661-15.758a33.889,33.889,0,0,0-11.561-9.7A151.134,151.134,0,0,0,111.4,91.375a2.069,2.069,0,0,0-2.737.718,2.014,2.014,0,0,0,.718,2.736c3.771,1.61,7.551,3.194,11.216,5.038,4.379,2.2,8.671,4.757,11.851,8.562,3.22,3.853,4.758,8.79,5.674,13.645a160.766,160.766,0,0,1,2.2,22.357c.406,8.8.446,17.618.382,26.428-.019,2.574,3.981,2.577,4,0Z"/><path class="d" d="M120.837,125.7a426.62,426.62,0,0,0-1.476,43.686c.046,2.571,4.046,2.579,4,0a426.62,426.62,0,0,1,1.476-43.686c.218-2.565-3.783-2.55-4,0Z"/><path class="d" d="M76.664,200.538a15.952,15.952,0,0,1,.5-6.947,20.855,20.855,0,0,1,1.983-5.712c1.836-3.14,5.372-4.273,8.732-4.717,3.142-.416,6.31-.71,9.473-.9a16.638,16.638,0,0,1,8.339,1.268c3.637,1.682,8.159,5.431,8.023,9.837-.08,2.574,3.921,2.572,4,0,.154-4.989-3.75-9.4-7.681-11.99a19.172,19.172,0,0,0-11.174-3.192c-3.621.136-7.251.5-10.844.963-4.315.552-8.558,1.756-11.373,5.346a19.317,19.317,0,0,0-3.168,7.361,21.638,21.638,0,0,0-.669,9.75c.518,2.52,4.375,1.454,3.858-1.063Z"/><path class="d" d="M100.585,191.1a21.083,21.083,0,0,1,3.553.888c.235.082.469.17.7.262.2.078.293.128.042.015.119.054.239.106.357.161.449.209.889.438,1.315.69.371.218.732.453,1.08.706.053.038.375.215.1.074s.021.021.088.076c.152.127.3.257.445.392a11.46,11.46,0,0,1,.975,1.044l.224.274c.36.441-.119-.174.071.089.18.248.362.494.534.748a2,2,0,1,0,3.454-2.019,15.514,15.514,0,0,0-4.833-4.766,19.936,19.936,0,0,0-7.045-2.491,2.05,2.05,0,0,0-2.46,1.4,2.024,2.024,0,0,0,1.4,2.46Z"/><path class="d" d="M100.824,198.613c.146.011.29.026.434.045l-.532-.072a9.106,9.106,0,0,1,1.789.493c.211.077-.5-.221-.151-.064l.187.084q.235.11.465.231c.311.163.614.342.909.534.133.087.264.178.394.27a2.185,2.185,0,0,1,.214.158c-.092-.085-.363-.287-.113-.084a9.974,9.974,0,0,1,.744.665q.183.182.356.374c.041.045.271.384.328.387-.025,0-.293-.4-.13-.166.047.067.1.134.142.2q.15.222.283.453a2,2,0,0,0,3.454-2.018,11.307,11.307,0,0,0-3.832-3.809,10.786,10.786,0,0,0-4.941-1.683,2.011,2.011,0,0,0-2,2,2.048,2.048,0,0,0,2,2Z"/><path class="d" d="M98.079,205.2a5.692,5.692,0,0,1,1.29.381l-.477-.2a6.84,6.84,0,0,1,1.44.843l-.4-.313a6.446,6.446,0,0,1,1.14,1.135l-.313-.405a5.917,5.917,0,0,1,.692,1.17,2,2,0,0,0,1.2.919,2.043,2.043,0,0,0,1.541-.2,2.017,2.017,0,0,0,.919-1.195l.072-.531a1.988,1.988,0,0,0-.273-1.01,7.946,7.946,0,0,0-2.749-3.17,8.638,8.638,0,0,0-1.718-.9,5.807,5.807,0,0,0-1.291-.382,2.177,2.177,0,0,0-1.541.2,2,2,0,0,0-.717,2.736,1.942,1.942,0,0,0,1.195.92Z"/><path class="d" d="M76.893,204.79c2.3,4.523,8.714,5.589,13.285,5.583a23.6,23.6,0,0,1,3.685.1c1.158.183,1.953,1.057,2.882,1.7,2.235,1.558,5.834,1.546,7.209-1.153,1.166-2.289-2.283-4.316-3.454-2.019-.1.2-.229.24-.047.163a.62.62,0,0,1-.38.089,2.259,2.259,0,0,1-1.038-.349c-.812-.5-1.491-1.2-2.33-1.662-1.943-1.072-4.382-.882-6.527-.878a20.221,20.221,0,0,1-5.75-.826c-1.672-.482-3.258-1.158-4.081-2.776-1.167-2.295-4.619-.273-3.454,2.019Z"/><path class="d" d="M72.354,92.051c.905,3.376,3.116,6.225,5.246,8.933a27.485,27.485,0,0,0,8.185,7.095,2.013,2.013,0,0,0,2.019,0A61.9,61.9,0,0,0,93.338,104c1.748-1.369,3.565-2.666,5.193-4.18l-2.424.313c3.506,2.181,6.828,4.6,10.5,6.5a2.027,2.027,0,0,0,2.938-1.2,107.015,107.015,0,0,0,2.739-13.978,2.01,2.01,0,0,0-2-2,2.052,2.052,0,0,0-2,2,99.106,99.106,0,0,1-2.6,12.914l2.938-1.2c-3.672-1.9-7-4.319-10.5-6.5a2.04,2.04,0,0,0-2.424.313c-1.525,1.419-3.221,2.644-4.863,3.923a57.993,57.993,0,0,1-5.054,3.708H87.8a24.1,24.1,0,0,1-7.116-6.141c-1.786-2.241-3.725-4.692-4.476-7.5-.666-2.484-4.525-1.43-3.858,1.064Z"/><path class="d" d="M77.826,82.654c-.166-.124-.333-.248-.5-.375.24.185-.243-.2-.238-.192q-.427-.342-.845-.7-.843-.717-1.643-1.484a40.378,40.378,0,0,1-2.881-3.084c-.426-.5-.845-1.017-1.247-1.541.2.256.045.057,0,0-.1-.137-.2-.272-.3-.409a29.423,29.423,0,0,1-1.73-2.611A2,2,0,0,0,65,74.278a36.315,36.315,0,0,0,3.895,5.371,41.213,41.213,0,0,0,6.915,6.459,2,2,0,0,0,2.736-.717,2.059,2.059,0,0,0-.718-2.737Z"/><path class="d" d="M82.631,89.22c8.4,3.229,17.889,4.2,26.1-.127a25.313,25.313,0,0,0,9.539-8.556,30.2,30.2,0,0,0,4.06-12.583c.711-5.748.569-11.61.961-17.387.175-2.569-3.826-2.559-4,0-.328,4.84-.391,9.692-.7,14.532A30.173,30.173,0,0,1,115.9,76.587c-3.388,6.832-10.81,11.126-18.327,11.436a34.6,34.6,0,0,1-13.878-2.66,2.015,2.015,0,0,0-2.46,1.4,2.045,2.045,0,0,0,1.4,2.46Z"/><path class="d" d="M63.537,54.388a7.139,7.139,0,0,0-8.2.878,7.423,7.423,0,0,0-2.023,6.017c.275,4.863,3.109,10.22,7.643,12.39a9.619,9.619,0,0,0,8.44.091c2.268-1.221.25-4.675-2.019-3.454a3.83,3.83,0,0,1-1.23.357,7.3,7.3,0,0,1-.947.011q-.233-.01-.465-.033c-.257-.027-.3-.032-.142-.017a9.958,9.958,0,0,1-1.539-.386c-.1-.035-.2-.072-.3-.112.257.11.294.122.11.034a6.144,6.144,0,0,0-.732-.421,10.734,10.734,0,0,1-3.941-4.8,12.537,12.537,0,0,1-.841-3.18,9.592,9.592,0,0,1-.022-1.879,1.958,1.958,0,0,1,.1-.537c.019-.074.265-.834.121-.441-.133.36.065-.122.1-.19.056-.1.418-.565.1-.2a4.175,4.175,0,0,1,.482-.486c-.268.223.354-.2.432-.241a3,3,0,0,1,2.854.047c2.232,1.293,4.248-2.162,2.019-3.453Z"/><path class="d" d="M86.655,71.647a4.6,4.6,0,0,0-.878,1.284,8.513,8.513,0,0,0-.415,1.043,5.893,5.893,0,0,0-.19,1.1,2.054,2.054,0,0,0,2,2l.531-.071a2,2,0,0,0,.883-.515l.313-.405a2.007,2.007,0,0,0,.273-1.009c0-.027.006-.055.009-.082l-.071.532a3.762,3.762,0,0,1,.267-.928l-.2.478a3.789,3.789,0,0,1,.466-.834l-.312.405a1.487,1.487,0,0,1,.154-.173,2.057,2.057,0,0,0,0-2.828,2.012,2.012,0,0,0-1.414-.586l-.532.071a2,2,0,0,0-.883.515Z"/><path class="d" d="M108.529,34.725a13.962,13.962,0,0,1,7.228,5.466c2.021,3.183,2.634,7.042,2.637,10.911,0,2.574,4,2.579,4,0,0-4.521-.779-9.259-3.3-13.107a18.192,18.192,0,0,0-9.5-7.127,2,2,0,0,0-1.063,3.857Z"/><path class="d" d="M90.635,32.2a12.474,12.474,0,0,1,1.48-2.556l-.313.4a11.132,11.132,0,0,1,1.981-1.965l-.405.313a15.217,15.217,0,0,1,1.3-.886,2,2,0,1,0-2.019-3.454,14.057,14.057,0,0,0-3.328,2.728,13.533,13.533,0,0,0-2.147,3.4,2.182,2.182,0,0,0-.2,1.541,2,2,0,0,0,2.46,1.4,1.938,1.938,0,0,0,1.2-.919Z"/><path class="d" d="M97.617,33.032c.166-.149.336-.292.508-.435-.36.3.19-.137.26-.186a12.64,12.64,0,0,1,1.129-.7c.391-.217.792-.41,1.2-.591-.438.2.225-.086.3-.115q.319-.12.642-.226a20.857,20.857,0,0,1,2.684-.683q.347-.066.7-.121c.083-.013.826-.115.348-.055q.709-.088,1.424-.149a2,2,0,0,0,0-4c-4.356.374-8.687,1.455-12.023,4.434a2.015,2.015,0,0,0,0,2.829,2.048,2.048,0,0,0,2.829,0Z"/><path class="d" d="M70.95,55.782c.069-1.5.189-3.008.371-4.5a16.143,16.143,0,0,1,.665-3.377c.095-.264-.146.292-.009.018.066-.134.123-.273.189-.408.123-.251.254-.5.4-.74A6.557,6.557,0,0,1,73,46.093c-.247.325-.02.038.046-.023.106-.1.206-.2.312-.3.2-.185.4-.362.6-.534.167-.137-.207.13.1-.068.1-.066.2-.137.307-.2a6.272,6.272,0,0,1,.853-.453c-.2.085.031-.006.106-.03.218-.067.432-.137.651-.2a2,2,0,0,0-1.063-3.857,9.827,9.827,0,0,0-6.464,5.634,15.926,15.926,0,0,0-1.021,4.35q-.359,2.677-.483,5.374a2,2,0,0,0,4,0Z"/><path class="d" d="M77.656,42.829c.08-.221.163-.44.251-.657.112-.275.071-.109-.025.057.064-.109.109-.246.162-.361q.3-.644.638-1.264t.745-1.237q.209-.319.43-.628c.067-.094.136-.186.2-.28.281-.387-.278.337.025-.033a15.219,15.219,0,0,1,1.98-2.049c.1-.084.212-.162.309-.25-.15.135-.267.2-.037.036.194-.138.392-.271.6-.4.181-.112.367-.218.556-.318.113-.059.226-.115.341-.169s.51-.212-.015,0a2.2,2.2,0,0,0,1.2-.919,2.044,2.044,0,0,0,.2-1.541,2.02,2.02,0,0,0-2.461-1.4C78.334,33.217,75.385,37.4,73.8,41.765a2.01,2.01,0,0,0,1.4,2.46,2.052,2.052,0,0,0,2.46-1.4Z"/><path class="d" d="M112.313,20.087c3.657,4.056,5.563,9.307,6.547,14.612a52.043,52.043,0,0,1,.274,16.727,2.066,2.066,0,0,0,1.4,2.46,2.014,2.014,0,0,0,2.46-1.4c1.726-11.828.493-25.977-7.849-35.23-1.728-1.916-4.549.92-2.829,2.828Z"/><path class="d" d="M57.111,58.423a27.054,27.054,0,0,1-2.465-8.4,39.711,39.711,0,0,1-.7-7.752c.146-6.026,1.214-12.178,4.469-17.344a36.04,36.04,0,0,1,14.932-13.45,31.994,31.994,0,0,1,14.52-2.771c7.073.168,13.905,1.749,19.4,6.431,1.949,1.661,4.791-1.156,2.828-2.829C104.641,7.663,98.16,5.44,91.08,4.868A38.8,38.8,0,0,0,73.954,6.9,39.252,39.252,0,0,0,56.571,20.557c-4.119,5.591-5.919,11.954-6.473,18.815a44.437,44.437,0,0,0,.5,10.539,32.022,32.022,0,0,0,3.06,10.531c1.237,2.258,4.692.242,3.454-2.019Z"/><path class="d" d="M89.051,105.829a16.555,16.555,0,0,0,8.764,1.191,14.547,14.547,0,0,0,4.245-1.075,16.364,16.364,0,0,0,2.719-1.616,2.052,2.052,0,0,0,.717-2.736,2.018,2.018,0,0,0-2.736-.718,17.111,17.111,0,0,1-2.367,1.457c-.01.005-.454.2-.187.088.243-.1-.088.03-.132.045-.24.084-.48.165-.724.234-.3.084-.6.154-.909.214-.133.026-.266.048-.4.072a1.074,1.074,0,0,1-.226.035,17.814,17.814,0,0,1-3.424.1c-.138-.01-.276-.022-.414-.035-.091-.009-.475-.052-.209-.017-.324-.043-.648-.105-.968-.174s-.648-.153-.966-.251c-.141-.044-.282-.09-.422-.139.011,0-.553-.226-.342-.132a2.061,2.061,0,0,0-2.736.718,2.015,2.015,0,0,0,.717,2.736Z"/><path class="d" d="M101.47,73.922c-.123.073-.246.142-.373.2a1.313,1.313,0,0,0-.2.095c.309-.242.308-.125.107-.048a8.285,8.285,0,0,1-.922.291c-.35.089-.709.128-1.059.209.092-.021.424-.048.148-.023-.086.008-.171.018-.257.025q-.288.024-.578.032a9.342,9.342,0,0,1-1-.023c-.081-.006-.162-.017-.243-.022-.262-.017.43.073.176.024-.169-.032-.339-.059-.508-.1-.15-.036-.3-.079-.445-.128s-.392-.211-.525-.2l.207.087-.206-.089-.277-.12c-.321-.137-.642-.274-.968-.4a2.007,2.007,0,0,0-2.46,1.4,2.059,2.059,0,0,0,1.4,2.461c.056.021.453.189.181.069-.247-.108.062.029.108.048.318.138.635.275.955.406a6.618,6.618,0,0,0,1.08.353,10.473,10.473,0,0,0,2.66.234,10.767,10.767,0,0,0,5.024-1.328,2,2,0,0,0-2.018-3.454Z"/><path class="d" d="M84.24,57.291c-.363,1.533.168,4.97,3.034,5.076,3.762-.272,3.685-4.465,2.289-6.346C88.419,54.481,85.325,54.013,84.24,57.291Z"/><path class="d" d="M106.837,55.14c-.329,1.487.164,4.823,2.794,4.931,3.45-.256,3.371-4.324,2.086-6.152C110.665,52.422,107.826,51.962,106.837,55.14Z"/><path class="d" d="M98.709,64.431c.293.429.576.865.853,1.3a11.632,11.632,0,0,1,.845,1.458l-.2-.478a1.448,1.448,0,0,1,.087.3l-.071-.532a.978.978,0,0,1,.005.171l.071-.532a.621.621,0,0,1-.045.158l.2-.477a.461.461,0,0,1-.063.095l.312-.405a2.309,2.309,0,0,1-.26.254l.405-.313a1.564,1.564,0,0,1-.341.2l.477-.2a4.3,4.3,0,0,1-.666.147,2,2,0,0,0-.477,3.655,2.195,2.195,0,0,0,1.541.2,5.8,5.8,0,0,0,.573-.113,3.643,3.643,0,0,0,1.419-.839,2.542,2.542,0,0,0,.847-2,3.912,3.912,0,0,0-.544-1.656c-.463-.827-.981-1.627-1.515-2.41a2.132,2.132,0,0,0-1.195-.919,2.043,2.043,0,0,0-1.541.2,2.017,2.017,0,0,0-.919,1.2,1.993,1.993,0,0,0,.2,1.541Z"/><path class="d" d="M27.606,140.65a17.182,17.182,0,0,0-10.626,6.113,18.338,18.338,0,0,0-3.806,11.774c0,8.523-.041,17.046-.071,25.569q-.019,5.466-.029,10.931c0,2.574,4,2.578,4,0,0-6.942.04-13.884.064-20.826q.019-6.153.033-12.306c.006-3.639-.234-7.26,1.548-10.576a13.472,13.472,0,0,1,9.95-6.822,2.017,2.017,0,0,0,1.4-2.46,2.047,2.047,0,0,0-2.46-1.4Z"/></svg>