<?xml version="1.0" encoding="utf-8"?><!-- Uploaded to: SVG Repo, www.svgrepo.com, Generator: SVG Repo Mixer Tools -->
<svg width="800px" height="800px" viewBox="-20 0 190 190" fill="none" xmlns="http://www.w3.org/2000/svg">
<path fill-rule="evenodd" clip-rule="evenodd" d="M116.052 74.499L102.231 63.891C104.184 61.149 105.746 59.042 106.645 57.991C111.588 52.215 124.867 61.332 119.978 68.656C119.156 69.889 117.776 71.941 116.052 74.499ZM90.766 111.897L75.478 118.256L76.771 101.392C76.771 101.392 83.307 91.527 90.35 81.125L84.228 65.159L54.27 73.668L60.134 93.106L42.342 98.276L58.754 142.637L108.165 127.591L100.26 106.972L103.718 100.725L114.987 131.487L54.824 149.469L35.737 95.664L47.339 69.968L88.128 58.168L94.371 75.212C96.032 72.781 97.657 70.42 99.167 68.25L113.069 78.921C104.164 92.114 90.766 111.897 90.766 111.897Z" fill="#000000"/>
</svg>