<?xml version="1.0" encoding="utf-8"?>
<!-- Generator: Adobe Illustrator 24.3.0, SVG Export Plug-In . SVG Version: 6.00 Build 0)  -->
<svg version="1.1" id="Layer_1" xmlns="http://www.w3.org/2000/svg" xmlns:xlink="http://www.w3.org/1999/xlink" x="0px" y="0px"
	 viewBox="0 0 120 120" enable-background="new 0 0 120 120" xml:space="preserve">
<g>
	<path fill="#FFBB00" d="M84.795,34.12v45.412H63.866c-2.379,0-4.303,1.925-4.303,4.303h-0.001v1.109h15.634h16.367V34.12H84.795z"
		/>
	<path fill="#F65314" d="M55.246,79.519H34.251V34.12h-6.688v50.824h16.365h15.634v-1.109
		C59.562,81.449,57.632,79.519,55.246,79.519z"/>
	<path fill="#7CBB00" d="M41.975,54.653c0,9.713,7.874,17.587,17.587,17.587V37.066C49.849,37.066,41.975,44.94,41.975,54.653z"/>
	<path fill="#00A1F1" d="M59.562,37.066V72.24c9.713,0,17.587-7.874,17.587-17.587C77.149,44.94,69.275,37.066,59.562,37.066z"/>
	<g>
		<path fill="#1A171B" d="M83.014,90.075h-4.077c-0.404,0-0.732,0.328-0.732,0.732c0,0.404,0.328,0.733,0.732,0.733h4.077
			c0.405,0,0.733-0.328,0.733-0.733C83.748,90.404,83.42,90.075,83.014,90.075z"/>
		<path fill="#1A171B" d="M74.052,90.075H45.886c-0.405,0-0.733,0.328-0.733,0.732c0,0.404,0.328,0.733,0.733,0.733h28.166
			c0.404,0,0.732-0.328,0.732-0.733C74.784,90.404,74.456,90.075,74.052,90.075z"/>
		<path fill="#1A171B" d="M84.796,27.704h-20.93c-1.801,0-3.372,0.957-4.263,2.383c-0.872-1.514-2.489-2.547-4.357-2.547H34.251
			c-0.405,0-0.733,0.328-0.733,0.733v51.245c0,0.404,0.328,0.732,0.733,0.732h20.995c1.976,0,3.583,1.608,3.583,3.584
			c0,0.002,0.001,0.004,0.001,0.006v1.104h1.466v-1.109c0-1.969,1.602-3.57,3.57-3.57h20.93c0.404,0,0.732-0.328,0.732-0.732V28.437
			C85.528,28.032,85.2,27.704,84.796,27.704z M58.829,70.554c-1.421-1.407-3.812-4.049-5.608-7.409
			c1.746-0.558,3.63-0.958,5.608-1.038V70.554z M51.169,47.002c-0.944,2.11-1.605,4.442-1.719,6.919h-6.705
			c0.152-3.531,1.407-6.774,3.409-9.42C47.554,45.361,49.261,46.255,51.169,47.002z M47.102,43.355
			c2.657-2.937,6.327-4.926,10.459-5.42c-1.55,1.552-3.949,4.277-5.752,7.734C50.031,44.986,48.431,44.16,47.102,43.355z
			 M49.45,55.387c0.113,2.478,0.774,4.81,1.719,6.92c-1.907,0.746-3.613,1.64-5.013,2.5c-2.003-2.646-3.258-5.888-3.411-9.42H49.45z
			 M51.809,63.64c1.801,3.454,4.198,6.178,5.748,7.73c-4.129-0.495-7.796-2.484-10.452-5.418
			C48.432,65.148,50.032,64.324,51.809,63.64z M58.829,60.622c-2.225,0.082-4.333,0.546-6.272,1.187
			c-0.899-1.972-1.528-4.144-1.645-6.422h7.917V60.622z M58.829,53.921h-7.917c0.116-2.275,0.747-4.448,1.647-6.42
			c1.938,0.641,4.045,1.103,6.27,1.186V53.921z M58.829,47.202c-1.978-0.08-3.86-0.481-5.605-1.037c1.796-3.358,4.186-6,5.605-7.409
			V47.202z M58.829,36.37c-9.76,0.389-17.586,8.428-17.586,18.282s7.826,17.894,17.586,18.282v7.347
			c-0.915-0.923-2.184-1.495-3.583-1.495H34.983V29.007h20.263c1.976,0,3.583,1.607,3.583,3.583V36.37z M60.296,38.757
			c1.42,1.408,3.81,4.051,5.606,7.408c-1.746,0.557-3.629,0.957-5.606,1.037V38.757z M67.956,62.307
			c0.943-2.11,1.605-4.442,1.719-6.92h6.706c-0.153,3.532-1.409,6.774-3.412,9.421C71.568,63.947,69.862,63.054,67.956,62.307z
			 M72.019,65.952c-2.656,2.934-6.324,4.923-10.454,5.418c1.551-1.553,3.948-4.276,5.75-7.73
			C69.092,64.324,70.691,65.148,72.019,65.952z M69.675,53.921c-0.113-2.476-0.775-4.809-1.719-6.919
			c1.908-0.747,3.614-1.642,5.015-2.502c2.003,2.646,3.258,5.89,3.41,9.421H69.675z M67.315,45.669
			c-1.804-3.457-4.203-6.183-5.754-7.734c4.133,0.494,7.803,2.483,10.46,5.42C70.693,44.16,69.094,44.986,67.315,45.669z
			 M60.296,48.687c2.224-0.083,4.331-0.546,6.269-1.186c0.899,1.972,1.53,4.145,1.648,6.42h-7.917V48.687z M60.296,55.387h7.917
			c-0.117,2.276-0.748,4.449-1.649,6.421c-1.938-0.641-4.045-1.103-6.268-1.186V55.387z M60.296,62.107
			c1.977,0.08,3.859,0.48,5.606,1.037c-1.797,3.357-4.187,6-5.606,7.408V62.107z M84.062,78.8H63.866
			c-1.395,0-2.657,0.569-3.57,1.487v-7.353c9.761-0.389,17.587-8.428,17.587-18.282S70.056,36.759,60.296,36.37V32.74
			c0-1.969,1.602-3.57,3.57-3.57h20.196V78.8z"/>
		<path fill="#1A171B" d="M53.699,33.404H49.79c-0.404,0-0.733,0.328-0.733,0.732c0,0.405,0.329,0.733,0.733,0.733h3.909
			c0.404,0,0.732-0.328,0.732-0.733C54.431,33.732,54.103,33.404,53.699,33.404z"/>
		<path fill="#1A171B" d="M45.881,33.404h-5.767c-0.404,0-0.733,0.328-0.733,0.732c0,0.405,0.328,0.733,0.733,0.733h5.767
			c0.404,0,0.732-0.328,0.732-0.733C46.613,33.732,46.285,33.404,45.881,33.404z"/>
		<path fill="#1A171B" d="M43.928,39.267h-3.813c-0.404,0-0.733,0.329-0.733,0.733c0,0.405,0.328,0.733,0.733,0.733h3.813
			c0.404,0,0.732-0.328,0.732-0.733C44.66,39.596,44.332,39.267,43.928,39.267z"/>
		<path fill="#1A171B" d="M78.931,72.937h-9.597c-0.405,0-0.733,0.328-0.733,0.733c0,0.404,0.328,0.733,0.733,0.733h9.597
			c0.405,0,0.733-0.329,0.733-0.733C79.665,73.265,79.337,72.937,78.931,72.937z"/>
		<path fill="#1A171B" d="M78.931,67.074h-2.756c-0.405,0-0.733,0.328-0.733,0.732c0,0.404,0.328,0.732,0.733,0.732h2.756
			c0.405,0,0.733-0.328,0.733-0.732C79.665,67.402,79.337,67.074,78.931,67.074z"/>
		<path fill="#1A171B" d="M78.931,42.753c-0.404,0-0.732,0.328-0.732,0.733v2.354c0,0.404,0.328,0.733,0.732,0.733
			c0.405,0,0.733-0.329,0.733-0.733v-2.354C79.665,43.081,79.337,42.753,78.931,42.753z"/>
		<path fill="#1A171B" d="M65.426,34.854h12.773v4.724c0,0.404,0.328,0.732,0.732,0.732c0.405,0,0.733-0.328,0.733-0.732V34.12
			c0-0.404-0.328-0.732-0.733-0.732H65.426c-0.405,0-0.733,0.328-0.733,0.732C64.692,34.526,65.02,34.854,65.426,34.854z"/>
		<path fill="#1A171B" d="M40.847,70.316c0-0.404-0.328-0.732-0.732-0.732c-0.404,0-0.733,0.328-0.733,0.732v3.34
			c0,0.404,0.328,0.732,0.733,0.732h5.814c0.405,0,0.733-0.328,0.733-0.732s-0.328-0.732-0.733-0.732h-5.082V70.316z"/>
	</g>
</g>
</svg>
